<?xml version="1.0" encoding="UTF-8" standalone="no"?>
<!-- Created with matplotlib (http://matplotlib.org/) -->

<svg
   xmlns:dc="http://purl.org/dc/elements/1.1/"
   xmlns:cc="http://creativecommons.org/ns#"
   xmlns:rdf="http://www.w3.org/1999/02/22-rdf-syntax-ns#"
   xmlns:svg="http://www.w3.org/2000/svg"
   xmlns="http://www.w3.org/2000/svg"
   xmlns:xlink="http://www.w3.org/1999/xlink"
   xmlns:sodipodi="http://sodipodi.sourceforge.net/DTD/sodipodi-0.dtd"
   xmlns:inkscape="http://www.inkscape.org/namespaces/inkscape"
   height="7.2124457cm"
   version="1.1"
   viewBox="0 0 340.5365 204.44728"
   width="12.013371cm"
   id="svg225"
   inkscape:version="0.91 r13725"
   sodipodi:docname="example_dogxy_w=2.516nm_a=13nm_b=20nm_m=2_n=2__vs__m=6_n=16.svg">
  <metadata
     id="metadata495">
    <rdf:RDF>
      <cc:Work
         rdf:about="">
        <dc:format>image/svg+xml</dc:format>
        <dc:type
           rdf:resource="http://purl.org/dc/dcmitype/StillImage" />
        <dc:title></dc:title>
      </cc:Work>
    </rdf:RDF>
  </metadata>
  <sodipodi:namedview
     pagecolor="#ffffff"
     bordercolor="#666666"
     borderopacity="1"
     objecttolerance="10"
     gridtolerance="10"
     guidetolerance="10"
     inkscape:pageopacity="0"
     inkscape:pageshadow="2"
     inkscape:window-width="1301"
     inkscape:window-height="744"
     id="namedview493"
     showgrid="false"
     inkscape:zoom="1.0886957"
     inkscape:cx="258.79175"
     inkscape:cy="174.96381"
     inkscape:window-x="65"
     inkscape:window-y="24"
     inkscape:window-maximized="1"
     inkscape:current-layer="svg225"
     inkscape:document-units="cm"
     units="cm"
     fit-margin-top="0"
     fit-margin-left="0"
     fit-margin-right="0"
     fit-margin-bottom="0" />
  <defs
     id="defs227"
     style="stroke-linecap:butt;stroke-linejoin:round">
    <style
       type="text/css"
       id="style229">
*{stroke-linecap:butt;stroke-linejoin:round;}
  </style>
    <clipPath
       id="p489ae370a4"
       style="stroke-linecap:butt;stroke-linejoin:round">
      <rect
         height="266.112"
         width="357.12"
         x="57.599998"
         y="41.472"
         id="rect219"
         style="stroke-linecap:butt;stroke-linejoin:round" />
    </clipPath>
  </defs>
  <g
     style="stroke-linecap:butt;stroke-linejoin:round"
     id="patch_1"
     transform="matrix(0.73901153,0,0,0.59157206,0,-3.0517581e-6)">
    <path
       inkscape:connector-curvature="0"
       id="path233"
       style="fill:#ffffff;stroke-linecap:butt;stroke-linejoin:round"
       d="m 0,345.6 460.8,0 L 460.8,0 0,0 Z" />
  </g>
  <g
     id="patch_2"
     style="stroke-linecap:butt;stroke-linejoin:round"
     transform="matrix(0.64806758,0,0,0.64806758,5.714589,-5.7145923)">
    <path
       d="m 57.6,307.584 357.12,0 0,-266.112 -357.12,0 z"
       style="fill:#ffffff;stroke-linecap:butt;stroke-linejoin:round"
       id="path237"
       inkscape:connector-curvature="0" />
  </g>
  <defs
     id="defs488">
    <clipPath
       id="paa75de8fe4"
       style="stroke-linecap:butt;stroke-linejoin:round">
      <rect
         height="266.112"
         width="357.12"
         x="57.599998"
         y="41.472"
         id="rect491"
         style="stroke-linecap:butt;stroke-linejoin:round" />
    </clipPath>
  </defs>
  <text
     xml:space="preserve"
     style="font-style:normal;font-weight:normal;font-size:16.55505753px;line-height:125%;font-family:sans-serif;letter-spacing:0px;word-spacing:0px;fill:#3376ff;fill-opacity:1;stroke:none;stroke-width:1px;stroke-linecap:butt;stroke-linejoin:miter;stroke-opacity:1"
     x="189.11984"
     y="39.401665"
     id="text5476"
     sodipodi:linespacing="125%"><tspan
       sodipodi:role="line"
       id="tspan5478"
       style="font-style:normal;font-variant:normal;font-weight:bold;font-stretch:normal;font-size:12.96135139px;font-family:sans-serif;-inkscape-font-specification:'sans-serif Bold';fill:#3376ff;fill-opacity:1;stroke:none;stroke-linecap:butt;stroke-linejoin:round;stroke-opacity:1"
       x="189.11984"
       y="39.401665">m=n=2</tspan></text>
  <text
     xml:space="preserve"
     style="font-style:normal;font-weight:normal;font-size:16.55505753px;line-height:125%;font-family:sans-serif;letter-spacing:0px;word-spacing:0px;fill:#00f428;fill-opacity:1;stroke:none;stroke-width:1px;stroke-linecap:butt;stroke-linejoin:miter;stroke-opacity:1"
     x="189.11984"
     y="56.165859"
     id="text5476-5"
     sodipodi:linespacing="125%"><tspan
       sodipodi:role="line"
       id="tspan5478-3"
       style="font-style:normal;font-variant:normal;font-weight:bold;font-stretch:normal;font-size:12.96135139px;font-family:sans-serif;-inkscape-font-specification:'sans-serif Bold';fill:#00f428;fill-opacity:1;stroke-linecap:butt;stroke-linejoin:round"
       x="189.11984"
       y="56.165859">m=6, n=16</tspan></text>
  <g
     id="g5887"
     style="stroke-linecap:butt;stroke-linejoin:round"
     transform="matrix(0.64806758,0,0,0.64806758,5.714589,-5.7145923)">
    <g
       id="g5728"
       style="stroke-linecap:butt;stroke-linejoin:round">
      <g
         id="line2d_15"
         style="stroke:#00f528;stroke-width:2.4000001;stroke-linecap:butt;stroke-linejoin:round;stroke-miterlimit:4;stroke-dasharray:none;stroke-opacity:1">
        <path
           clip-path="url(#paa75de8fe4)"
           d="m 73.832727,204.37993 0,0 6.907544,0 0,0 6.907543,0 0,0 6.907544,0 0,0 6.907542,0 0,0 6.90755,0 0,0 6.90754,0 0,0 6.90754,0 0,0 6.90754,0 0,0 6.90755,0 0,0 6.90754,0 0,0 6.90755,0 0,0 6.90754,0 0,0 6.90754,0 0,0 6.90755,0 0,0.0712 6.90754,0 0,34.4338 6.90754,0 0,56.60306 6.90755,0 0,-9.80882 6.90754,0 0,-89.21597 6.90754,0 0,-93.46359 6.90755,0 0,-39.837625 6.90754,0 0,-8.736927 6.90754,0 0,-0.843654 6.90755,0 0,-0.01341 6.90754,0 0,0.01341 6.90754,0 0,0.843654 6.90755,0 0,8.736927 6.90754,0 0,39.837625 6.90755,0 0,93.46359 6.90754,0 0,89.21597 6.90754,0 0,9.80882 6.90755,0 0,-56.60306 6.90754,0 0,-34.4338 6.90754,0 0,-0.0712 6.90755,0 0,0 6.90754,0 0,0 6.90754,0 0,0 6.90755,0 0,0 6.90754,0 0,0 6.90754,0 0,0 6.90755,0 0,0 6.90754,0 0,0 6.90754,0 0,0 6.90755,0 0,0 6.90754,0 0,0 6.90755,0 0,0 6.90754,0 0,0 6.90754,0"
           style="fill:none;stroke:#00f528;stroke-width:2.4000001;stroke-linecap:square;stroke-linejoin:round;stroke-miterlimit:4;stroke-dasharray:none;stroke-opacity:1"
           id="path474"
           inkscape:connector-curvature="0" />
      </g>
      <g
         id="g5574"
         style="stroke-linecap:butt;stroke-linejoin:round">
        <g
           style="stroke-linecap:butt;stroke-linejoin:round"
           id="matplotlib.axis_1">
          <g
             style="stroke-linecap:butt;stroke-linejoin:round"
             id="xtick_1">
            <g
               style="stroke-linecap:butt;stroke-linejoin:round"
               id="line2d_1">
              <defs
                 id="defs242">
                <path
                   inkscape:connector-curvature="0"
                   style="stroke:#000000;stroke-width:0.80000001;stroke-linecap:butt;stroke-linejoin:round"
                   id="me3a6649990"
                   d="M 0,0 0,3.5" />
              </defs>
              <g
                 style="stroke-linecap:butt;stroke-linejoin:round"
                 id="g245">
                <use
                   height="100%"
                   width="100%"
                   id="use247"
                   y="307.58401"
                   xlink:href="#me3a6649990"
                   x="98.009132"
                   style="stroke:#000000;stroke-width:0.80000001;stroke-linecap:butt;stroke-linejoin:round" />
              </g>
            </g>
            <g
               style="stroke-linecap:butt;stroke-linejoin:round"
               id="text_1">
              <!-- −20 -->
              <defs
                 id="defs250">
                <path
                   style="stroke-linecap:butt;stroke-linejoin:round"
                   inkscape:connector-curvature="0"
                   id="DejaVuSans-2212"
                   d="m 10.59375,35.5 62.59375,0 0,-8.296875 -62.59375,0 z" />
                <path
                   style="stroke-linecap:butt;stroke-linejoin:round"
                   inkscape:connector-curvature="0"
                   id="DejaVuSans-32"
                   d="m 19.1875,8.296875 34.421875,0 0,-8.296875 -46.28125,0 0,8.296875 q 5.609375,5.8125 15.296875,15.59375 9.703125,9.796875 12.1875,12.640625 4.734375,5.3125 6.609375,9 1.890625,3.6875 1.890625,7.25 0,5.8125 -4.078125,9.46875 -4.078125,3.671875 -10.625,3.671875 -4.640625,0 -9.796875,-1.609375 -5.140625,-1.609375 -11,-4.890625 l 0,9.96875 Q 13.765625,71.78125 18.9375,73 q 5.1875,1.21875 9.484375,1.21875 11.328125,0 18.0625,-5.671875 6.734375,-5.65625 6.734375,-15.125 0,-4.5 -1.6875,-8.53125 Q 49.859375,40.875 45.40625,35.40625 44.1875,33.984375 37.640625,27.21875 31.109375,20.453125 19.1875,8.296875" />
                <path
                   style="stroke-linecap:butt;stroke-linejoin:round"
                   inkscape:connector-curvature="0"
                   id="DejaVuSans-30"
                   d="m 31.78125,66.40625 q -7.609375,0 -11.453125,-7.5 Q 16.5,51.421875 16.5,36.375 q 0,-14.984375 3.828125,-22.484375 3.84375,-7.5 11.453125,-7.5 7.671875,0 11.5,7.5 3.84375,7.5 3.84375,22.484375 0,15.046875 -3.84375,22.53125 -3.828125,7.5 -11.5,7.5 m 0,7.8125 q 12.265625,0 18.734375,-9.703125 6.46875,-9.6875 6.46875,-28.140625 0,-18.40625 -6.46875,-28.109375 -6.46875,-9.6875 -18.734375,-9.6875 -12.25,0 -18.71875,9.6875 Q 6.59375,17.96875 6.59375,36.375 q 0,18.453125 6.46875,28.140625 6.46875,9.703125 18.71875,9.703125" />
              </defs>
              <g
                 style="stroke-linecap:butt;stroke-linejoin:round"
                 id="g255"
                 transform="matrix(0.1,0,0,-0.1,87.456786,322.18244)">
                <use
                   height="100%"
                   width="100%"
                   y="0"
                   x="0"
                   style="stroke-linecap:butt;stroke-linejoin:round"
                   id="use257"
                   xlink:href="#DejaVuSans-2212" />
                <use
                   height="100%"
                   width="100%"
                   y="0"
                   style="stroke-linecap:butt;stroke-linejoin:round"
                   id="use259"
                   xlink:href="#DejaVuSans-32"
                   x="83.789062" />
                <use
                   height="100%"
                   width="100%"
                   y="0"
                   style="stroke-linecap:butt;stroke-linejoin:round"
                   id="use261"
                   xlink:href="#DejaVuSans-30"
                   x="147.41211" />
              </g>
            </g>
          </g>
          <g
             style="stroke-linecap:butt;stroke-linejoin:round"
             id="xtick_2">
            <g
               style="stroke-linecap:butt;stroke-linejoin:round"
               id="line2d_2">
              <g
                 style="stroke-linecap:butt;stroke-linejoin:round"
                 id="g265">
                <use
                   height="100%"
                   width="100%"
                   id="use267"
                   y="307.58401"
                   xlink:href="#me3a6649990"
                   x="167.08456"
                   style="stroke:#000000;stroke-width:0.80000001;stroke-linecap:butt;stroke-linejoin:round" />
              </g>
            </g>
            <g
               style="stroke-linecap:butt;stroke-linejoin:round"
               id="text_2">
              <!-- −10 -->
              <defs
                 id="defs270">
                <path
                   style="stroke-linecap:butt;stroke-linejoin:round"
                   inkscape:connector-curvature="0"
                   id="DejaVuSans-31"
                   d="m 12.40625,8.296875 16.109375,0 0,55.625 -17.53125,-3.515625 0,8.984375 17.4375,3.515625 9.859375,0 0,-64.609375 16.109375,0 0,-8.296875 -41.984375,0 z" />
              </defs>
              <g
                 style="stroke-linecap:butt;stroke-linejoin:round"
                 id="g273"
                 transform="matrix(0.1,0,0,-0.1,156.53222,322.18244)">
                <use
                   height="100%"
                   width="100%"
                   y="0"
                   x="0"
                   style="stroke-linecap:butt;stroke-linejoin:round"
                   id="use275"
                   xlink:href="#DejaVuSans-2212" />
                <use
                   height="100%"
                   width="100%"
                   y="0"
                   style="stroke-linecap:butt;stroke-linejoin:round"
                   id="use277"
                   xlink:href="#DejaVuSans-31"
                   x="83.789062" />
                <use
                   height="100%"
                   width="100%"
                   y="0"
                   style="stroke-linecap:butt;stroke-linejoin:round"
                   id="use279"
                   xlink:href="#DejaVuSans-30"
                   x="147.41211" />
              </g>
            </g>
          </g>
          <g
             style="stroke-linecap:butt;stroke-linejoin:round"
             id="xtick_3">
            <g
               style="stroke-linecap:butt;stroke-linejoin:round"
               id="line2d_3">
              <g
                 style="stroke-linecap:butt;stroke-linejoin:round"
                 id="g283">
                <use
                   height="100%"
                   width="100%"
                   id="use285"
                   y="307.58401"
                   xlink:href="#me3a6649990"
                   x="236.16"
                   style="stroke:#000000;stroke-width:0.80000001;stroke-linecap:butt;stroke-linejoin:round" />
              </g>
            </g>
            <g
               style="stroke-linecap:butt;stroke-linejoin:round"
               id="text_3">
              <!-- 0 -->
              <g
                 style="stroke-linecap:butt;stroke-linejoin:round"
                 id="g288"
                 transform="matrix(0.1,0,0,-0.1,232.97875,322.18244)">
                <use
                   height="100%"
                   width="100%"
                   y="0"
                   x="0"
                   style="stroke-linecap:butt;stroke-linejoin:round"
                   id="use290"
                   xlink:href="#DejaVuSans-30" />
              </g>
            </g>
          </g>
          <g
             style="stroke-linecap:butt;stroke-linejoin:round"
             id="xtick_4">
            <g
               style="stroke-linecap:butt;stroke-linejoin:round"
               id="line2d_4">
              <g
                 style="stroke-linecap:butt;stroke-linejoin:round"
                 id="g294">
                <use
                   height="100%"
                   width="100%"
                   id="use296"
                   y="307.58401"
                   xlink:href="#me3a6649990"
                   x="305.23544"
                   style="stroke:#000000;stroke-width:0.80000001;stroke-linecap:butt;stroke-linejoin:round" />
              </g>
            </g>
            <g
               style="stroke-linecap:butt;stroke-linejoin:round"
               id="text_4">
              <!-- 10 -->
              <g
                 style="stroke-linecap:butt;stroke-linejoin:round"
                 id="g299"
                 transform="matrix(0.1,0,0,-0.1,298.87293,322.18244)">
                <use
                   height="100%"
                   width="100%"
                   y="0"
                   x="0"
                   style="stroke-linecap:butt;stroke-linejoin:round"
                   id="use301"
                   xlink:href="#DejaVuSans-31" />
                <use
                   height="100%"
                   width="100%"
                   y="0"
                   style="stroke-linecap:butt;stroke-linejoin:round"
                   id="use303"
                   xlink:href="#DejaVuSans-30"
                   x="63.623047" />
              </g>
            </g>
          </g>
          <g
             style="stroke-linecap:butt;stroke-linejoin:round"
             id="xtick_5">
            <g
               style="stroke-linecap:butt;stroke-linejoin:round"
               id="line2d_5">
              <g
                 style="stroke-linecap:butt;stroke-linejoin:round"
                 id="g307">
                <use
                   height="100%"
                   width="100%"
                   id="use309"
                   y="307.58401"
                   xlink:href="#me3a6649990"
                   x="374.31088"
                   style="stroke:#000000;stroke-width:0.80000001;stroke-linecap:butt;stroke-linejoin:round" />
              </g>
            </g>
            <g
               style="stroke-linecap:butt;stroke-linejoin:round"
               id="text_5">
              <!-- 20 -->
              <g
                 style="stroke-linecap:butt;stroke-linejoin:round"
                 id="g312"
                 transform="matrix(0.1,0,0,-0.1,367.94837,322.18244)">
                <use
                   height="100%"
                   width="100%"
                   y="0"
                   x="0"
                   style="stroke-linecap:butt;stroke-linejoin:round"
                   id="use314"
                   xlink:href="#DejaVuSans-32" />
                <use
                   height="100%"
                   width="100%"
                   y="0"
                   style="stroke-linecap:butt;stroke-linejoin:round"
                   id="use316"
                   xlink:href="#DejaVuSans-30"
                   x="63.623047" />
              </g>
            </g>
          </g>
        </g>
        <g
           style="stroke-linecap:butt;stroke-linejoin:round"
           id="matplotlib.axis_2">
          <g
             style="stroke-linecap:butt;stroke-linejoin:round"
             id="ytick_1">
            <g
               style="stroke-linecap:butt;stroke-linejoin:round"
               id="line2d_6">
              <defs
                 id="defs321">
                <path
                   inkscape:connector-curvature="0"
                   style="stroke:#000000;stroke-width:0.80000001;stroke-linecap:butt;stroke-linejoin:round"
                   id="m307a7fb7b3"
                   d="M 0,0 -3.5,0" />
              </defs>
              <g
                 style="stroke-linecap:butt;stroke-linejoin:round"
                 id="g324">
                <use
                   height="100%"
                   width="100%"
                   id="use326"
                   y="294.86746"
                   xlink:href="#m307a7fb7b3"
                   x="57.599998"
                   style="stroke:#000000;stroke-width:0.80000001;stroke-linecap:butt;stroke-linejoin:round" />
              </g>
            </g>
            <g
               style="stroke-linecap:butt;stroke-linejoin:round"
               id="text_6">
              <!-- −0.6 -->
              <defs
                 id="defs329">
                <path
                   style="stroke-linecap:butt;stroke-linejoin:round"
                   inkscape:connector-curvature="0"
                   id="DejaVuSans-2e"
                   d="M 10.6875,12.40625 21,12.40625 21,0 10.6875,0 Z" />
                <path
                   style="stroke-linecap:butt;stroke-linejoin:round"
                   inkscape:connector-curvature="0"
                   id="DejaVuSans-36"
                   d="m 33.015625,40.375 q -6.640625,0 -10.53125,-4.546875 -3.875,-4.53125 -3.875,-12.4375 0,-7.859375 3.875,-12.4375 3.890625,-4.5625 10.53125,-4.5625 6.640625,0 10.515625,4.5625 3.875,4.578125 3.875,12.4375 0,7.90625 -3.875,12.4375 Q 39.65625,40.375 33.015625,40.375 m 19.578125,30.921875 0,-8.984375 q -3.71875,1.75 -7.5,2.671875 -3.78125,0.9375 -7.5,0.9375 -9.765625,0 -14.921875,-6.59375 -5.140625,-6.59375 -5.875,-19.921875 2.875,4.25 7.21875,6.515625 4.359375,2.265625 9.578125,2.265625 10.984375,0 17.359375,-6.671875 6.375,-6.65625 6.375,-18.125 0,-11.234375 -6.640625,-18.03125 -6.640625,-6.78125 -17.671875,-6.78125 -12.65625,0 -19.34375,9.6875 -6.6875,9.703125 -6.6875,28.109375 0,17.28125 8.203125,27.5625 8.203125,10.28125 22.015625,10.28125 3.71875,0 7.5,-0.734375 3.78125,-0.734375 7.890625,-2.1875" />
              </defs>
              <g
                 style="stroke-linecap:butt;stroke-linejoin:round"
                 id="g333"
                 transform="matrix(0.1,0,0,-0.1,26.317187,298.66667)">
                <use
                   height="100%"
                   width="100%"
                   y="0"
                   x="0"
                   style="stroke-linecap:butt;stroke-linejoin:round"
                   id="use335"
                   xlink:href="#DejaVuSans-2212" />
                <use
                   height="100%"
                   width="100%"
                   y="0"
                   style="stroke-linecap:butt;stroke-linejoin:round"
                   id="use337"
                   xlink:href="#DejaVuSans-30"
                   x="83.789062" />
                <use
                   height="100%"
                   width="100%"
                   y="0"
                   style="stroke-linecap:butt;stroke-linejoin:round"
                   id="use339"
                   xlink:href="#DejaVuSans-2e"
                   x="147.41211" />
                <use
                   height="100%"
                   width="100%"
                   y="0"
                   style="stroke-linecap:butt;stroke-linejoin:round"
                   id="use341"
                   xlink:href="#DejaVuSans-36"
                   x="179.19922" />
              </g>
            </g>
          </g>
          <g
             style="stroke-linecap:butt;stroke-linejoin:round"
             id="ytick_2">
            <g
               style="stroke-linecap:butt;stroke-linejoin:round"
               id="line2d_7">
              <g
                 style="stroke-linecap:butt;stroke-linejoin:round"
                 id="g345">
                <use
                   height="100%"
                   width="100%"
                   id="use347"
                   y="264.70496"
                   xlink:href="#m307a7fb7b3"
                   x="57.599998"
                   style="stroke:#000000;stroke-width:0.80000001;stroke-linecap:butt;stroke-linejoin:round" />
              </g>
            </g>
            <g
               style="stroke-linecap:butt;stroke-linejoin:round"
               id="text_7">
              <!-- −0.4 -->
              <defs
                 id="defs350">
                <path
                   style="stroke-linecap:butt;stroke-linejoin:round"
                   inkscape:connector-curvature="0"
                   id="DejaVuSans-34"
                   d="m 37.796875,64.3125 -24.90625,-38.921875 24.90625,0 z m -2.59375,8.59375 12.40625,0 0,-47.515625 10.40625,0 0,-8.203125 -10.40625,0 0,-17.1875 -9.8125,0 0,17.1875 -32.90625,0 0,9.515625 z" />
              </defs>
              <g
                 style="stroke-linecap:butt;stroke-linejoin:round"
                 id="g353"
                 transform="matrix(0.1,0,0,-0.1,26.317187,268.50416)">
                <use
                   height="100%"
                   width="100%"
                   y="0"
                   x="0"
                   style="stroke-linecap:butt;stroke-linejoin:round"
                   id="use355"
                   xlink:href="#DejaVuSans-2212" />
                <use
                   height="100%"
                   width="100%"
                   y="0"
                   style="stroke-linecap:butt;stroke-linejoin:round"
                   id="use357"
                   xlink:href="#DejaVuSans-30"
                   x="83.789062" />
                <use
                   height="100%"
                   width="100%"
                   y="0"
                   style="stroke-linecap:butt;stroke-linejoin:round"
                   id="use359"
                   xlink:href="#DejaVuSans-2e"
                   x="147.41211" />
                <use
                   height="100%"
                   width="100%"
                   y="0"
                   style="stroke-linecap:butt;stroke-linejoin:round"
                   id="use361"
                   xlink:href="#DejaVuSans-34"
                   x="179.19922" />
              </g>
            </g>
          </g>
          <g
             style="stroke-linecap:butt;stroke-linejoin:round"
             id="ytick_3">
            <g
               style="stroke-linecap:butt;stroke-linejoin:round"
               id="line2d_8">
              <g
                 style="stroke-linecap:butt;stroke-linejoin:round"
                 id="g365">
                <use
                   height="100%"
                   width="100%"
                   id="use367"
                   y="234.54243"
                   xlink:href="#m307a7fb7b3"
                   x="57.599998"
                   style="stroke:#000000;stroke-width:0.80000001;stroke-linecap:butt;stroke-linejoin:round" />
              </g>
            </g>
            <g
               style="stroke-linecap:butt;stroke-linejoin:round"
               id="text_8">
              <!-- −0.2 -->
              <g
                 style="stroke-linecap:butt;stroke-linejoin:round"
                 id="g370"
                 transform="matrix(0.1,0,0,-0.1,26.317187,238.34165)">
                <use
                   height="100%"
                   width="100%"
                   y="0"
                   x="0"
                   style="stroke-linecap:butt;stroke-linejoin:round"
                   id="use372"
                   xlink:href="#DejaVuSans-2212" />
                <use
                   height="100%"
                   width="100%"
                   y="0"
                   style="stroke-linecap:butt;stroke-linejoin:round"
                   id="use374"
                   xlink:href="#DejaVuSans-30"
                   x="83.789062" />
                <use
                   height="100%"
                   width="100%"
                   y="0"
                   style="stroke-linecap:butt;stroke-linejoin:round"
                   id="use376"
                   xlink:href="#DejaVuSans-2e"
                   x="147.41211" />
                <use
                   height="100%"
                   width="100%"
                   y="0"
                   style="stroke-linecap:butt;stroke-linejoin:round"
                   id="use378"
                   xlink:href="#DejaVuSans-32"
                   x="179.19922" />
              </g>
            </g>
          </g>
          <g
             style="stroke-linecap:butt;stroke-linejoin:round"
             id="ytick_4">
            <g
               style="stroke-linecap:butt;stroke-linejoin:round"
               id="line2d_9">
              <g
                 style="stroke-linecap:butt;stroke-linejoin:round"
                 id="g382">
                <use
                   height="100%"
                   width="100%"
                   id="use384"
                   y="204.37993"
                   xlink:href="#m307a7fb7b3"
                   x="57.599998"
                   style="stroke:#000000;stroke-width:0.80000001;stroke-linecap:butt;stroke-linejoin:round" />
              </g>
            </g>
            <g
               style="stroke-linecap:butt;stroke-linejoin:round"
               id="text_9">
              <!-- 0.0 -->
              <g
                 style="stroke-linecap:butt;stroke-linejoin:round"
                 id="g387"
                 transform="matrix(0.1,0,0,-0.1,34.696875,208.17915)">
                <use
                   height="100%"
                   width="100%"
                   y="0"
                   x="0"
                   style="stroke-linecap:butt;stroke-linejoin:round"
                   id="use389"
                   xlink:href="#DejaVuSans-30" />
                <use
                   height="100%"
                   width="100%"
                   y="0"
                   style="stroke-linecap:butt;stroke-linejoin:round"
                   id="use391"
                   xlink:href="#DejaVuSans-2e"
                   x="63.623047" />
                <use
                   height="100%"
                   width="100%"
                   y="0"
                   style="stroke-linecap:butt;stroke-linejoin:round"
                   id="use393"
                   xlink:href="#DejaVuSans-30"
                   x="95.410156" />
              </g>
            </g>
          </g>
          <g
             style="stroke-linecap:butt;stroke-linejoin:round"
             id="ytick_5">
            <g
               style="stroke-linecap:butt;stroke-linejoin:round"
               id="line2d_10">
              <g
                 style="stroke-linecap:butt;stroke-linejoin:round"
                 id="g397">
                <use
                   height="100%"
                   width="100%"
                   id="use399"
                   y="174.21742"
                   xlink:href="#m307a7fb7b3"
                   x="57.599998"
                   style="stroke:#000000;stroke-width:0.80000001;stroke-linecap:butt;stroke-linejoin:round" />
              </g>
            </g>
            <g
               style="stroke-linecap:butt;stroke-linejoin:round"
               id="text_10">
              <!-- 0.2 -->
              <g
                 style="stroke-linecap:butt;stroke-linejoin:round"
                 id="g402"
                 transform="matrix(0.1,0,0,-0.1,34.696875,178.01664)">
                <use
                   height="100%"
                   width="100%"
                   y="0"
                   x="0"
                   style="stroke-linecap:butt;stroke-linejoin:round"
                   id="use404"
                   xlink:href="#DejaVuSans-30" />
                <use
                   height="100%"
                   width="100%"
                   y="0"
                   style="stroke-linecap:butt;stroke-linejoin:round"
                   id="use406"
                   xlink:href="#DejaVuSans-2e"
                   x="63.623047" />
                <use
                   height="100%"
                   width="100%"
                   y="0"
                   style="stroke-linecap:butt;stroke-linejoin:round"
                   id="use408"
                   xlink:href="#DejaVuSans-32"
                   x="95.410156" />
              </g>
            </g>
          </g>
          <g
             style="stroke-linecap:butt;stroke-linejoin:round"
             id="ytick_6">
            <g
               style="stroke-linecap:butt;stroke-linejoin:round"
               id="line2d_11">
              <g
                 style="stroke-linecap:butt;stroke-linejoin:round"
                 id="g412">
                <use
                   height="100%"
                   width="100%"
                   id="use414"
                   y="144.05492"
                   xlink:href="#m307a7fb7b3"
                   x="57.599998"
                   style="stroke:#000000;stroke-width:0.80000001;stroke-linecap:butt;stroke-linejoin:round" />
              </g>
            </g>
            <g
               style="stroke-linecap:butt;stroke-linejoin:round"
               id="text_11">
              <!-- 0.4 -->
              <g
                 style="stroke-linecap:butt;stroke-linejoin:round"
                 id="g417"
                 transform="matrix(0.1,0,0,-0.1,34.696875,147.85413)">
                <use
                   height="100%"
                   width="100%"
                   y="0"
                   x="0"
                   style="stroke-linecap:butt;stroke-linejoin:round"
                   id="use419"
                   xlink:href="#DejaVuSans-30" />
                <use
                   height="100%"
                   width="100%"
                   y="0"
                   style="stroke-linecap:butt;stroke-linejoin:round"
                   id="use421"
                   xlink:href="#DejaVuSans-2e"
                   x="63.623047" />
                <use
                   height="100%"
                   width="100%"
                   y="0"
                   style="stroke-linecap:butt;stroke-linejoin:round"
                   id="use423"
                   xlink:href="#DejaVuSans-34"
                   x="95.410156" />
              </g>
            </g>
          </g>
          <g
             style="stroke-linecap:butt;stroke-linejoin:round"
             id="ytick_7">
            <g
               style="stroke-linecap:butt;stroke-linejoin:round"
               id="line2d_12">
              <g
                 style="stroke-linecap:butt;stroke-linejoin:round"
                 id="g427">
                <use
                   height="100%"
                   width="100%"
                   id="use429"
                   y="113.89241"
                   xlink:href="#m307a7fb7b3"
                   x="57.599998"
                   style="stroke:#000000;stroke-width:0.80000001;stroke-linecap:butt;stroke-linejoin:round" />
              </g>
            </g>
            <g
               style="stroke-linecap:butt;stroke-linejoin:round"
               id="text_12">
              <!-- 0.6 -->
              <g
                 style="stroke-linecap:butt;stroke-linejoin:round"
                 id="g432"
                 transform="matrix(0.1,0,0,-0.1,34.696875,117.69163)">
                <use
                   height="100%"
                   width="100%"
                   y="0"
                   x="0"
                   style="stroke-linecap:butt;stroke-linejoin:round"
                   id="use434"
                   xlink:href="#DejaVuSans-30" />
                <use
                   height="100%"
                   width="100%"
                   y="0"
                   style="stroke-linecap:butt;stroke-linejoin:round"
                   id="use436"
                   xlink:href="#DejaVuSans-2e"
                   x="63.623047" />
                <use
                   height="100%"
                   width="100%"
                   y="0"
                   style="stroke-linecap:butt;stroke-linejoin:round"
                   id="use438"
                   xlink:href="#DejaVuSans-36"
                   x="95.410156" />
              </g>
            </g>
          </g>
          <g
             style="stroke-linecap:butt;stroke-linejoin:round"
             id="ytick_8">
            <g
               style="stroke-linecap:butt;stroke-linejoin:round"
               id="line2d_13">
              <g
                 style="stroke-linecap:butt;stroke-linejoin:round"
                 id="g442">
                <use
                   height="100%"
                   width="100%"
                   id="use444"
                   y="83.729904"
                   xlink:href="#m307a7fb7b3"
                   x="57.599998"
                   style="stroke:#000000;stroke-width:0.80000001;stroke-linecap:butt;stroke-linejoin:round" />
              </g>
            </g>
            <g
               style="stroke-linecap:butt;stroke-linejoin:round"
               id="text_13">
              <!-- 0.8 -->
              <defs
                 id="defs447">
                <path
                   style="stroke-linecap:butt;stroke-linejoin:round"
                   inkscape:connector-curvature="0"
                   id="DejaVuSans-38"
                   d="m 31.78125,34.625 q -7.03125,0 -11.0625,-3.765625 -4.015625,-3.765625 -4.015625,-10.34375 0,-6.59375 4.015625,-10.359375 4.03125,-3.765625 11.0625,-3.765625 7.03125,0 11.078125,3.78125 4.0625,3.796875 4.0625,10.34375 0,6.578125 -4.03125,10.34375 Q 38.875,34.625 31.78125,34.625 m -9.859375,4.1875 Q 15.578125,40.375 12.03125,44.71875 8.5,49.078125 8.5,55.328125 q 0,8.734375 6.21875,13.8125 6.234375,5.078125 17.0625,5.078125 10.890625,0 17.09375,-5.078125 6.203125,-5.078125 6.203125,-13.8125 0,-6.25 -3.546875,-10.609375 Q 48,40.375 41.703125,38.8125 q 7.125,-1.65625 11.09375,-6.5 3.984375,-4.828125 3.984375,-11.796875 0,-10.609375 -6.46875,-16.28125 -6.46875,-5.65625 -18.53125,-5.65625 -12.046875,0 -18.53125,5.65625 -6.46875,5.671875 -6.46875,16.28125 0,6.96875 4,11.796875 4.015625,4.84375 11.140625,6.5 M 18.3125,54.390625 q 0,-5.65625 3.53125,-8.828125 3.546875,-3.171875 9.9375,-3.171875 6.359375,0 9.9375,3.171875 3.59375,3.171875 3.59375,8.828125 0,5.671875 -3.59375,8.84375 -3.578125,3.171875 -9.9375,3.171875 -6.390625,0 -9.9375,-3.171875 Q 18.3125,60.0625 18.3125,54.390625" />
              </defs>
              <g
                 style="stroke-linecap:butt;stroke-linejoin:round"
                 id="g450"
                 transform="matrix(0.1,0,0,-0.1,34.696875,87.529122)">
                <use
                   height="100%"
                   width="100%"
                   y="0"
                   x="0"
                   style="stroke-linecap:butt;stroke-linejoin:round"
                   id="use452"
                   xlink:href="#DejaVuSans-30" />
                <use
                   height="100%"
                   width="100%"
                   y="0"
                   style="stroke-linecap:butt;stroke-linejoin:round"
                   id="use454"
                   xlink:href="#DejaVuSans-2e"
                   x="63.623047" />
                <use
                   height="100%"
                   width="100%"
                   y="0"
                   style="stroke-linecap:butt;stroke-linejoin:round"
                   id="use456"
                   xlink:href="#DejaVuSans-38"
                   x="95.410156" />
              </g>
            </g>
          </g>
          <g
             style="stroke-linecap:butt;stroke-linejoin:round"
             id="ytick_9">
            <g
               style="stroke-linecap:butt;stroke-linejoin:round"
               id="line2d_14">
              <g
                 style="stroke-linecap:butt;stroke-linejoin:round"
                 id="g460">
                <use
                   height="100%"
                   width="100%"
                   id="use462"
                   y="53.567398"
                   xlink:href="#m307a7fb7b3"
                   x="57.599998"
                   style="stroke:#000000;stroke-width:0.80000001;stroke-linecap:butt;stroke-linejoin:round" />
              </g>
            </g>
            <g
               style="stroke-linecap:butt;stroke-linejoin:round"
               id="text_14">
              <!-- 1.0 -->
              <g
                 style="stroke-linecap:butt;stroke-linejoin:round"
                 id="g465"
                 transform="matrix(0.1,0,0,-0.1,34.696875,57.366615)">
                <use
                   height="100%"
                   width="100%"
                   y="0"
                   x="0"
                   style="stroke-linecap:butt;stroke-linejoin:round"
                   id="use467"
                   xlink:href="#DejaVuSans-31" />
                <use
                   height="100%"
                   width="100%"
                   y="0"
                   style="stroke-linecap:butt;stroke-linejoin:round"
                   id="use469"
                   xlink:href="#DejaVuSans-2e"
                   x="63.623047" />
                <use
                   height="100%"
                   width="100%"
                   y="0"
                   style="stroke-linecap:butt;stroke-linejoin:round"
                   id="use471"
                   xlink:href="#DejaVuSans-30"
                   x="95.410156" />
              </g>
            </g>
          </g>
        </g>
        <g
           style="stroke-linecap:butt;stroke-linejoin:round"
           id="patch_3">
          <path
             inkscape:connector-curvature="0"
             id="path477"
             style="fill:none;stroke:#000000;stroke-width:0.80000001;stroke-linecap:square;stroke-linejoin:miter"
             d="m 57.6,307.584 0,-266.112" />
        </g>
        <g
           style="stroke-linecap:butt;stroke-linejoin:round"
           id="patch_4">
          <path
             inkscape:connector-curvature="0"
             id="path480"
             style="fill:none;stroke:#000000;stroke-width:0.80000001;stroke-linecap:square;stroke-linejoin:miter"
             d="m 414.72,307.584 0,-266.112" />
        </g>
        <g
           style="stroke-linecap:butt;stroke-linejoin:round"
           id="patch_5">
          <path
             inkscape:connector-curvature="0"
             id="path483"
             style="fill:none;stroke:#000000;stroke-width:0.80000001;stroke-linecap:square;stroke-linejoin:miter"
             d="m 57.6,307.584 357.12,0" />
        </g>
        <g
           style="stroke-linecap:butt;stroke-linejoin:round"
           id="patch_6">
          <path
             inkscape:connector-curvature="0"
             id="path486"
             style="fill:none;stroke:#000000;stroke-width:0.80000001;stroke-linecap:square;stroke-linejoin:miter"
             d="m 57.6,41.472 357.12,0" />
        </g>
      </g>
      <g
         transform="matrix(1.0007553,0,0,0.69919618,0.22162836,16.169542)"
         id="line2d_12-3"
         style="stroke:#3374ff;stroke-width:2.86911368;stroke-linecap:butt;stroke-linejoin:round;stroke-miterlimit:4;stroke-dasharray:none;stroke-opacity:1">
        <path
           clip-path="url(#p489ae370a4)"
           d="m 73.832727,269.34417 0,0.0193 6.907544,0 0,0.0383 6.907543,0 0,0.0732 6.907544,0 0,0.13538 6.907542,0 0,0.24191 6.90755,0 0,0.41725 6.90754,0 0,0.69378 6.90754,0 0,1.10932 6.90754,0 0,1.69892 6.90755,0 0,2.47547 6.90754,0 0,3.3937 6.90755,0 0,4.29386 6.90754,0 0,4.8326 6.90754,0 0,4.42992 6.90755,0 0,2.29093 6.90754,0 0,-2.42214 6.90754,0 0,-10.22114 6.90755,0 0,-20.78345 6.90754,0 0,-32.51711 6.90754,0 0,-42.52887 6.90755,0 0,-47.2627 6.90754,0 0,-43.768741 6.90754,0 0,-31.128324 6.90755,0 0,-11.287525 6.90754,0 0,11.287525 6.90754,0 0,31.128324 6.90755,0 0,43.768741 6.90754,0 0,47.2627 6.90755,0 0,42.52887 6.90754,0 0,32.51711 6.90754,0 0,20.78345 6.90755,0 0,10.22114 6.90754,0 0,2.42214 6.90754,0 0,-2.29093 6.90755,0 0,-4.42992 6.90754,0 0,-4.8326 6.90754,0 0,-4.29386 6.90755,0 0,-3.3937 6.90754,0 0,-2.47547 6.90754,0 0,-1.69892 6.90755,0 0,-1.10932 6.90754,0 0,-0.69378 6.90754,0 0,-0.41725 6.90755,0 0,-0.24191 6.90754,0 0,-0.13538 6.90755,0 0,-0.0732 6.90754,0 0,-0.0383 6.90754,0"
           style="fill:none;stroke:#3374ff;stroke-width:2.86911368;stroke-linecap:square;stroke-linejoin:round;stroke-miterlimit:4;stroke-dasharray:none;stroke-opacity:1"
           id="path202"
           inkscape:connector-curvature="0" />
      </g>
    </g>
    <text
       transform="matrix(0,-1,1,0,0,0)"
       sodipodi:linespacing="125%"
       id="text5525"
       y="19.644167"
       x="-258.14841"
       style="font-style:normal;font-weight:normal;font-size:32px;line-height:125%;font-family:sans-serif;letter-spacing:0px;word-spacing:0px;fill:#000000;fill-opacity:1;stroke:none;stroke-width:1px;stroke-linecap:butt;stroke-linejoin:miter;stroke-opacity:1"
       xml:space="preserve"><tspan
         y="19.644167"
         x="-258.14841"
         style="font-style:italic;font-variant:normal;font-weight:normal;font-stretch:normal;font-size:28px;font-family:sans-serif;-inkscape-font-specification:'sans-serif Italic';stroke-linecap:butt;stroke-linejoin:round"
         id="tspan5527"
         sodipodi:role="line">h(r) <tspan
   id="tspan5551"
   style="font-size:14px;stroke-linecap:butt;stroke-linejoin:round">(filter weights)</tspan></tspan></text>
    <g
       id="g5567"
       style="stroke-linecap:butt;stroke-linejoin:round">
      <rect
         style="fill:#ffffff;fill-opacity:1;stroke:none;stroke-width:3;stroke-linecap:butt;stroke-linejoin:round;stroke-miterlimit:4;stroke-dasharray:none;stroke-dashoffset:0;stroke-opacity:1"
         id="rect5553"
         width="107.28435"
         height="26.453674"
         x="407.09265"
         y="189.21725" />
      <text
         xml:space="preserve"
         style="font-style:normal;font-weight:normal;font-size:32px;line-height:125%;font-family:sans-serif;letter-spacing:0px;word-spacing:0px;fill:#000000;fill-opacity:1;stroke:none;stroke-width:1px;stroke-linecap:butt;stroke-linejoin:miter;stroke-opacity:1"
         x="408.24414"
         y="210.50029"
         id="text5525-5"
         sodipodi:linespacing="125%"><tspan
           sodipodi:role="line"
           id="tspan5527-6"
           style="font-style:italic;font-variant:normal;font-weight:normal;font-stretch:normal;font-size:28px;font-family:sans-serif;-inkscape-font-specification:'sans-serif Italic';stroke-linecap:butt;stroke-linejoin:round"
           x="408.24414"
           y="210.50029"><tspan
             style="font-size:32px;stroke-linecap:butt;stroke-linejoin:round"
             id="tspan5549">r </tspan><tspan
             style="font-size:16px;stroke-linecap:butt;stroke-linejoin:round"
             id="tspan5547">(in voxels)</tspan></tspan></text>
    </g>
  </g>
</svg>
